# Blender 4.1.0
# www.blender.org
mtllib Cube0 newUV2.mtl
o Cube
v 1.000000 1.000000 -1.000000
v 1.000000 -1.000000 -1.000000
v 1.000000 1.000000 1.000000
v 1.000000 -1.000000 1.000000
v -1.000000 1.000000 -1.000000
v -1.000000 -1.000000 -1.000000
v -1.000000 1.000000 1.000000
v -1.000000 -1.000000 1.000000
vn -0.0000 1.0000 -0.0000
vn -0.0000 -0.0000 1.0000
vn -1.0000 -0.0000 -0.0000
vn -0.0000 -1.0000 -0.0000
vn 1.0000 -0.0000 -0.0000
vn -0.0000 -0.0000 -1.0000
vt 0.249925 0.749975
vt 0.374875 0.749975
vt 0.374875 0.874925
vt 0.250901 0.874925
vt 0.124975 1.000025
vt 0.124975 0.875075
vt 0.249925 0.875075
vt 0.249925 1.000025
vt 0.124975 0.500075
vt 0.249925 0.500075
vt 0.249925 0.625025
vt 0.124975 0.625025
vt 0.000025 0.749975
vt 0.124975 0.749975
vt 0.125951 0.874925
vt 0.000025 0.874925
s 0
usemtl Material
f 1/1/1 5/2/1 7/3/1 3/4/1
f 4/5/2 3/6/2 7/7/2 8/8/2
f 8/9/3 7/10/3 5/11/3 6/12/3
f 6/13/4 2/14/4 4/15/4 8/16/4
f 2/14/5 1/1/5 3/4/5 4/15/5
f 6/12/6 5/11/6 1/1/6 2/14/6
